<?xml version="1.0" encoding="UTF-8"?>
<svg xmlns="http://www.w3.org/2000/svg" xmlns:xlink="http://www.w3.org/1999/xlink" viewBox="0 0 16 16" width="23px" height="20px">
<g id="surface614545">
<path style="fill-rule:nonzero;fill:rgb(0%,0%,0%);fill-opacity:1;stroke-width:7;stroke-linecap:butt;stroke-linejoin:round;stroke:rgb(0%,0%,0%);stroke-opacity:1;stroke-miterlimit:10;" d="M 161.245102 59.126746 C 161.245102 85.694123 139.440626 107.498599 112.873249 107.498599 C 101.555896 107.498599 91.505737 102.954179 83.247128 96.356031 L 29.588018 150.015141 L 21.984854 142.411977 L 75.643964 88.752867 C 69.045816 80.494258 64.501396 70.444099 64.501396 59.126746 C 64.501396 32.559369 86.305872 10.754894 112.873249 10.754894 C 139.440626 10.754894 161.245102 32.559369 161.245102 59.126746 Z M 75.250697 59.126746 C 75.250697 79.838813 92.161182 96.749298 112.873249 96.749298 C 133.585316 96.749298 150.495801 79.838813 150.495801 59.126746 C 150.495801 38.414679 133.585316 21.504194 112.873249 21.504194 C 92.161182 21.504194 75.250697 38.414679 75.250697 59.126746 Z M 75.250697 59.126746 " transform="matrix(0.0893954,0,0,0.0893954,0.312,0.312)"/>
<path style=" stroke:none;fill-rule:nonzero;fill:rgb(0%,0%,0%);fill-opacity:1;" d="M 10.402344 1.273438 C 8.027344 1.273438 6.078125 3.222656 6.078125 5.597656 C 6.078125 6.609375 6.484375 7.507812 7.074219 8.246094 L 2.277344 13.042969 L 2.957031 13.722656 L 7.753906 8.925781 C 8.492188 9.515625 9.390625 9.921875 10.402344 9.921875 C 12.777344 9.921875 14.726562 7.972656 14.726562 5.597656 C 14.726562 3.222656 12.777344 1.273438 10.402344 1.273438 Z M 10.402344 2.234375 C 12.253906 2.234375 13.765625 3.746094 13.765625 5.597656 C 13.765625 7.449219 12.253906 8.960938 10.402344 8.960938 C 8.550781 8.960938 7.039062 7.449219 7.039062 5.597656 C 7.039062 3.746094 8.550781 2.234375 10.402344 2.234375 Z M 10.402344 2.234375 "/>
</g>
</svg>
